<svg xml:space="preserve" viewBox="0 0 100 100" y="0" x="0" xmlns="http://www.w3.org/2000/svg" id="Layer_1" version="1.1" style="height: 100%; width: 100%; background: rgb(255, 255, 255);" width="223px" height="223px"><g class="ldl-scale" style="transform-origin: 50% 50%; transform: rotate(0deg) scale(0.84, 0.84);"><g class="ldl-ani"><g class="ldl-layer"><g class="ldl-ani"><g><g class="ldl-layer"><g class="ldl-ani" style="transform-origin: 50px 50px; transform: scale(0.91); animation: 4.54545s linear -2.72727s infinite normal forwards running breath-77e3d254-ced2-4e88-9d0d-8c4b64de19e3;"><path d="M67.5 59.1h19.6v4H67.5z" fill="#a8b980" style="fill: rgb(6, 17, 60);"></path></g></g><g class="ldl-layer"><g class="ldl-ani" style="transform-origin: 50px 50px; transform: scale(0.91); animation: 4.54545s linear -3.18182s infinite normal forwards running breath-77e3d254-ced2-4e88-9d0d-8c4b64de19e3;"><path d="M67.5 39.3h25v4h-25z" fill="#a8b980" style="fill: rgb(6, 17, 60);"></path></g></g><g class="ldl-layer"><g class="ldl-ani" style="transform-origin: 50px 50px; transform: scale(0.91); animation: 4.54545s linear -3.63636s infinite normal forwards running breath-77e3d254-ced2-4e88-9d0d-8c4b64de19e3;"><path d="M67.5 49.2h22.6v4H67.5z" fill="#a8b980" style="fill: rgb(6, 17, 60);"></path></g></g></g></g></g><g class="ldl-layer"><g class="ldl-ani" style="transform-origin: 50px 50px; transform: scale(0.91); animation: 4.54545s linear -4.09091s infinite normal forwards running breath-77e3d254-ced2-4e88-9d0d-8c4b64de19e3;"><path fill="#f4e6c8" d="M32 57.7L7.5 42.5v22.9c0 3 2.4 5.4 5.4 5.4h43.7c3 0 5.4-2.4 5.4-5.4V42.5L37.5 57.7c-1.7 1.1-3.8 1.1-5.5 0z" style="fill: rgb(255, 140, 50);"></path></g></g><g class="ldl-layer"><g class="ldl-ani" style="transform-origin: 50px 50px; transform: scale(0.91); animation: 4.54545s linear -4.54545s infinite normal forwards running breath-77e3d254-ced2-4e88-9d0d-8c4b64de19e3;"><path fill="#f7b26a" d="M11.1 39.8l21.1 13.1c.8.5 1.7.7 2.6.7.9 0 1.8-.2 2.6-.7l21.1-13.1c2.3-1.4 3.6-3.8 3.6-6.5 0-2.2-1.8-4-4-4H11.5c-2.2 0-4 1.8-4 4 0 2.6 1.4 5.1 3.6 6.5z" style="fill: rgb(245, 109, 145);"></path></g></g></g></g></svg>